<svg xmlns="http://www.w3.org/2000/svg" viewBox="0 0 458.22 577.87"><defs><style>.a{fill:#fff;}.b{fill:#727272;}</style></defs><title>Broken metronome</title><rect class="a" width="458.22" height="577.87"/><path class="b" d="M264,333.75c0,10.35,146.29,71.53,146.29,83s-26.3,24.64-26.3,34l21.91,106.59a17.45,17.45,0,0,1-17.17,20.53H67.14A17.45,17.45,0,0,1,50,557.34L71.88,450.75c0-7.74,40.28-23.29,40.28-34S0,345.59,0,333.75s190.23-59.5,190.23-68-74.09-18.37-74.09-30l44-214.13L227.94,0l67.8,21.63,44,214.13c0,8,86.48,20.53,86.48,30S264,323.4,264,333.75Z"/></svg>